<?xml version="1.0" encoding="utf-8"?>
<!-- Generator: Adobe Illustrator 19.0.0, SVG Export Plug-In . SVG Version: 6.00 Build 0)  -->
<svg version="1.1" id="Layer_1" xmlns="http://www.w3.org/2000/svg" xmlns:xlink="http://www.w3.org/1999/xlink" x="0px" y="0px"
	 viewBox="0 0 67.9 41.6" style="enable-background:new 0 0 67.9 41.6;" xml:space="preserve">
<style type="text/css">
	.st0{fill:#FFFFFF;}
</style>
<g id="XMLID_2790_" transform="translate(0,-952.36218)">
	<path id="XMLID_2791_" class="st0" d="M67.9,973.2c0-0.5-0.3-1.2-0.6-1.5L49.7,953c-0.8-0.8-2.1-0.9-3.1-0.1
		c-0.9,0.8-0.9,2.3-0.1,3.1L60.6,971H2.2c-1.2,0-2.2,1-2.2,2.2c0,1.2,1,2.2,2.2,2.2h58.4l-14.1,14.9c-0.8,0.8-0.7,2.3,0.1,3.1
		c0.9,0.8,2.3,0.8,3.1-0.1l17.5-18.6C67.8,974.2,67.9,973.7,67.9,973.2L67.9,973.2z"/>
</g>
</svg>
