<?xml version="1.0" encoding="utf-8"?>
<!-- Generator: Adobe Illustrator 19.0.0, SVG Export Plug-In . SVG Version: 6.00 Build 0)  -->
<svg version="1.1" id="Layer_1" xmlns="http://www.w3.org/2000/svg" xmlns:xlink="http://www.w3.org/1999/xlink" x="0px" y="0px"
	 viewBox="0 0 67.9 41.6" style="enable-background:new 0 0 67.9 41.6;" xml:space="preserve">
<style type="text/css">
	.st0{fill:#FFFFFF;}
</style>
<g id="XMLID_2764_" transform="translate(0,-952.36218)">
	<path id="XMLID_2765_" class="st0" d="M0,973.2c0,0.5,0.3,1.2,0.6,1.5l17.5,18.6c0.8,0.8,2.1,0.9,3.1,0.1c0.9-0.8,0.9-2.3,0.1-3.1
		L7.3,975.3h58.4c1.2,0,2.2-1,2.2-2.2s-1-2.2-2.2-2.2H7.3l14.1-14.9c0.8-0.8,0.7-2.3-0.1-3.1c-0.9-0.8-2.3-0.8-3.1,0.1L0.6,971.7
		C0.1,972.2,0,972.6,0,973.2L0,973.2z"/>
</g>
</svg>
